<?xml version="1.0" encoding="UTF-8"?>
<svg xmlns="http://www.w3.org/2000/svg" viewBox="0 0 485 500">
  <rect width="485" height="500" rx="96" ry="96" fill="#b2c248"/>
  <path fill="#000" d="M240.22434352,435c38.36487747,0,78.57424844-8.4845355,94.80557099-20.2891226,10.329029-7.37785164,15.49351291-6.63998082,24.71585805-15.49345173,2.58224196-2.58230314,3.68892582-3.32005159,4.42673546-4.05780005,35.04482588-28.77378047,55.33394847-61.2363032,55.33394847-109.56133545,0-78.57430962-59.02293548-133.17050964-138.70386778-133.17050964-70.08974353,0-123.57925968,45.74272911-123.57925968,102.92123227,0,52.01389688,40.57827579,89.27221285,98.4945274,89.27221285,3.32005159,0,4.79560968-1.84455468,8.4845355-1.84455468,14.01795482,0,25.45360651-4.05780005,32.83151933-11.8045871,3.68892582-4.05780005,10.69790323-12.17340014,11.43565169-12.54233555,3.32005159-2.95111618,4.05786123-7.37785164,4.79560968-9.22228396.73780964-1.84455468,2.21336773-2.95123855,2.95117737-5.53341932.73780964-2.95111618-.36887423-6.64010318-.36887423-9.96015478,0-5.90223236,2.58224196-11.8045871,2.58224196-17.33800642,0-15.49345173-18.44469028-30.98702583-35.04488706-30.98702583-1.84443232,0-1.84443232-1.47549691-2.95111618-1.47549691s-2.21336773,1.10668386-3.32005159,1.10668386-2.58224196-1.84455468-4.05786123-1.84455468c-1.47555809,0-2.21330654,1.47561927-4.42667427,1.47561927-4.79560968,0-5.16454509.73774845-8.85347091.73774845-1.10668386,0-2.95111618.36893541-3.68892582.73787082-1.47555809.73774845-1.47555809,1.84443232-2.95111618,1.84443232q-2.95117737,0-2.95117737,1.10668386c0,4.05780005.36887423,3.32005159-1.47555809,3.32005159q-2.95117737,0-3.68892582.36881304c-1.47561927.73787082-.36893541,2.58230314-1.8444935,3.688987-1.47555809.73774845-1.84443232,1.84443232-2.21336773,4.05780005-.36887423,2.21336773-2.58224196,2.95111618-2.58224196,5.16448391,0,1.10668386.36887423,1.84455468.36887423,2.58230314,0,2.21336773-4.42667427,1.47561927-4.42667427,3.68886464,0,1.47561927,1.10668386,2.58230314,1.10668386,4.05792241,0,1.10668386-.73780964,1.84443232-.73780964,2.95111618s.73780964,1.84443232.73780964,2.58230314c0,1.84443232-2.58230314,2.21324536-2.58230314,3.68886464s1.47561927,2.58230314,1.47561927,3.688987c0,.73774845-1.10668386,1.10668386-1.10668386,2.21336773s-.36893541-.73787082,1.84443232,2.58218077c1.47561927,2.21336773,1.47561927,3.32005159,0,5.16448391-1.47555809,1.84455468-4.42667427,2.95123855-8.11566128,2.95123855-15.49348232,0-17.33794523-15.86250951-25.82251133-18.44469028-2.58224196-.73787082-2.95114677-1.10668386-2.95114677-2.21336773s0-.73774845,1.47558868-2.21336773c1.47555809-1.47561927,1.84446291-2.58230314,1.84446291-3.688987s0-1.47549691-.73777905-2.21336773c-2.95114677-4.7955485-4.42673546-10.69790323-4.42673546-17.33788405,0-33.93826438,42.05383388-63.44967093,80.41877253-63.44967093,11.8045871,0,9.96009359,2.95111618,16.96907101,2.95111618,1.84443232,0,1.10668386,0,3.68892582-.36893541,6.64010318-1.10668386,18.81356451,1.47561927,28.40478387,6.27129014,26.56035156,13.280084,47.21834838,45.74272911,47.21834838,82.26317426,0,62.34298707-55.33400966,102.92123227-129.11264841,102.92123227-40.20937097,0-67.8763758-12.54233555-95.17447581-43.16054833-2.95114677-3.32005159,1.47555809.73774845-3.32005159-7.74678705-5.90229355-10.32896782-5.1645145-3.68886464-5.1645145-3.68886464-1.84446291-2.21336773-5.16448391-8.4845355-7.00897741-10.69790323-2.21333714-2.58230314-5.16448391-2.21336773-6.27116777-3.688987-1.47558868-1.84443232.73777905-5.16448391,0-7.00891623-.73777905-2.95123855-7.00897741-7.37785164-7.74675646-9.59121937-.73780964-2.21336773-3.32005159-16.23132255-3.32005159-18.81362569,0-2.95111618,2.21336773-3.32005159,2.21336773-5.16448391,0-2.58230314-3.32005159-3.32005159-5.1645145-7.00891623-1.84446291-3.688987-2.95114677-12.17352251-2.95114677-21.39592883,0-4.7955485,0-6.63998082,1.47558868-17.70681946.36887423-3.688987,5.90229355-3.688987,5.90229355-7.74678705,0-1.47549691-.73780964-3.32005159-.73780964-4.42673546,0-1.47549691,0-1.84443232.36890482-2.95111618,15.49351291-64.92516784,84.8454468-113.25020009,161.94413715-113.25020009,26.56035156,0,46.84947415,4.7955485,78.20543539,18.07575487,10.32896782,4.42673546,25.45360651-3.32005159,25.45360651-11.43565169.73780964-2.58230314-.73780964-3.32005159-1.10668386-4.79567087s-1.84443232-3.32005159-3.32005159-3.688987c-.73774845-.36881304-1.10668386-1.47549691-1.84443232-2.58218077-1.10668386-1.84443232-2.21336773-2.58230314-5.16454509-3.32005159-1.47555809-.36893541-2.21330654-.73774845-2.95111618-1.47561927-1.10668386-1.47549691-1.8444935-2.21336773-3.32005159-2.95111618s-2.58224196,0-3.32005159-.36893541c-.73774845-.36881304-1.10668386-1.10668386-1.84443232-1.47549691-.36893541-.36893541-1.10668386-.36893541-2.21336773-.36893541-37.25825479-19.92018719-61.60517743-22.87142574-94.06782254-22.87142574-70.08971293,0-132.80157423,30.24927738-171.53535652,83.00104508-3.32005159,4.42673546-1.47558868,11.8045871-6.27119837,16.23132255-9.22234514,8.4845355-20.65802742,54.96513543-20.65802742,84.47654198,0,24.71585805,5.90229355,57.5473162,13.64905,75.62319344,15.12463869,35.41376129,8.4845355,20.65793564,10.69790323,23.97798723,4.42673546,7.0090386,8.11566128,7.74678705,9.96012419,9.96015478,0,0,1.10668386,2.21336773,1.10668386,4.42673546,0,1.47549691,0,1.84443232.36887423,2.58218077,1.10668386,2.21336773,6.27119837,5.90235473,7.74678705,7.37797401,3.320021,3.31992923,5.90229355,10.32896782,11.43568228,15.86238714,8.4845355,8.4845355,20.65802742,15.12463869,59.3918097,33.20039356,13.64905,6.27116777,5.90229355,2.95111618,7.37788223,3.32005159,3.320021,1.10668386,7.74675646,1.10668386,10.32899841,2.95111618,1.47558868,1.10668386-.36887423.73774845,3.68895641.73774845.73777905,0,.73777905.36893541,1.47555809.73787082.73777905.36881304,1.47558868,1.47549691,2.58224196,1.47549691.73780964,0,1.10668386-.73774845,2.21336773-.36881304,1.10668386.36881304,3.68892582,2.21324536,5.90229355,3.31992923,1.84446291,1.10668386,2.21336773,1.10668386,2.95114677.36893541,2.21336773-1.47561927,3.68892582.36893541,5.90229355.36893541.73780964,0,1.8444935-.36893541,4.05786123-.36893541,2.95111618,0,2.95111618.73774845,14.38682905.73774845Z"/>
</svg>
